<?xml version="1.0" encoding="UTF-8" standalone="no"?>
<!DOCTYPE svg PUBLIC "-//W3C//DTD SVG 1.1//EN"
 "http://www.w3.org/Graphics/SVG/1.1/DTD/svg11.dtd">
<!-- Generated by graphviz version 2.40.1 (20161225.0304)
 -->
<!-- Title: snakemake_dag Pages: 1 -->
<svg width="456pt" height="620pt"
 viewBox="0.00 0.00 455.88 620.00" xmlns="http://www.w3.org/2000/svg" xmlns:xlink="http://www.w3.org/1999/xlink">
<g id="graph0" class="graph" transform="scale(1 1) rotate(0) translate(4 616)">
<title>snakemake_dag</title>
<polygon fill="#ffffff" stroke="transparent" points="-4,4 -4,-616 451.876,-616 451.876,4 -4,4"/>
<!-- 0 -->
<g id="node1" class="node">
<title>0</title>
<path fill="none" stroke="#56d873" stroke-width="2" d="M235,-36C235,-36 205,-36 205,-36 199,-36 193,-30 193,-24 193,-24 193,-12 193,-12 193,-6 199,0 205,0 205,0 235,0 235,0 241,0 247,-6 247,-12 247,-12 247,-24 247,-24 247,-30 241,-36 235,-36"/>
<text text-anchor="middle" x="220" y="-15.5" font-family="sans" font-size="10.00" fill="#000000">all</text>
</g>
<!-- 1 -->
<g id="node2" class="node">
<title>1</title>
<path fill="none" stroke="#56d8d8" stroke-width="2" d="M179.5,-108C179.5,-108 138.5,-108 138.5,-108 132.5,-108 126.5,-102 126.5,-96 126.5,-96 126.5,-84 126.5,-84 126.5,-78 132.5,-72 138.5,-72 138.5,-72 179.5,-72 179.5,-72 185.5,-72 191.5,-78 191.5,-84 191.5,-84 191.5,-96 191.5,-96 191.5,-102 185.5,-108 179.5,-108"/>
<text text-anchor="middle" x="159" y="-87.5" font-family="sans" font-size="10.00" fill="#000000">plot_trnas</text>
</g>
<!-- 1&#45;&gt;0 -->
<g id="edge1" class="edge">
<title>1&#45;&gt;0</title>
<path fill="none" stroke="#c0c0c0" stroke-width="2" d="M174.3929,-71.8314C181.4904,-63.454 190.048,-53.3531 197.824,-44.1749"/>
<polygon fill="#c0c0c0" stroke="#c0c0c0" stroke-width="2" points="200.6061,-46.3056 204.3999,-36.4133 195.2652,-41.7807 200.6061,-46.3056"/>
</g>
<!-- 2 -->
<g id="node3" class="node">
<title>2</title>
<path fill="none" stroke="#d86e56" stroke-width="2" d="M362.5,-108C362.5,-108 275.5,-108 275.5,-108 269.5,-108 263.5,-102 263.5,-96 263.5,-96 263.5,-84 263.5,-84 263.5,-78 269.5,-72 275.5,-72 275.5,-72 362.5,-72 362.5,-72 368.5,-72 374.5,-78 374.5,-84 374.5,-84 374.5,-96 374.5,-96 374.5,-102 368.5,-108 362.5,-108"/>
<text text-anchor="middle" x="319" y="-87.5" font-family="sans" font-size="10.00" fill="#000000">graph_genes_reads</text>
</g>
<!-- 2&#45;&gt;0 -->
<g id="edge3" class="edge">
<title>2&#45;&gt;0</title>
<path fill="none" stroke="#c0c0c0" stroke-width="2" d="M294.0181,-71.8314C281.7072,-62.8779 266.6893,-51.9558 253.4063,-42.2955"/>
<polygon fill="#c0c0c0" stroke="#c0c0c0" stroke-width="2" points="255.1199,-39.214 244.9739,-36.1628 251.0027,-44.8752 255.1199,-39.214"/>
</g>
<!-- 3 -->
<g id="node4" class="node">
<title>3</title>
<path fill="none" stroke="#88d856" stroke-width="2" d="M242,-180C242,-180 198,-180 198,-180 192,-180 186,-174 186,-168 186,-168 186,-156 186,-156 186,-150 192,-144 198,-144 198,-144 242,-144 242,-144 248,-144 254,-150 254,-156 254,-156 254,-168 254,-168 254,-174 248,-180 242,-180"/>
<text text-anchor="middle" x="220" y="-159.5" font-family="sans" font-size="10.00" fill="#000000">graph_aed</text>
</g>
<!-- 3&#45;&gt;0 -->
<g id="edge2" class="edge">
<title>3&#45;&gt;0</title>
<path fill="none" stroke="#c0c0c0" stroke-width="2" d="M220,-143.7623C220,-119.201 220,-75.2474 220,-46.3541"/>
<polygon fill="#c0c0c0" stroke="#c0c0c0" stroke-width="2" points="223.5001,-46.0896 220,-36.0896 216.5001,-46.0897 223.5001,-46.0896"/>
</g>
<!-- 4 -->
<g id="node5" class="node">
<title>4</title>
<path fill="none" stroke="#56a2d8" stroke-width="2" d="M161,-324C161,-324 111,-324 111,-324 105,-324 99,-318 99,-312 99,-312 99,-300 99,-300 99,-294 105,-288 111,-288 111,-288 161,-288 161,-288 167,-288 173,-294 173,-300 173,-300 173,-312 173,-312 173,-318 167,-324 161,-324"/>
<text text-anchor="middle" x="136" y="-303.5" font-family="sans" font-size="10.00" fill="#000000">count_trnas</text>
</g>
<!-- 4&#45;&gt;1 -->
<g id="edge4" class="edge">
<title>4&#45;&gt;1</title>
<path fill="none" stroke="#c0c0c0" stroke-width="2" d="M137.9214,-287.9555C141.9295,-250.3144 151.207,-163.1867 156.0053,-118.1246"/>
<polygon fill="#c0c0c0" stroke="#c0c0c0" stroke-width="2" points="159.4893,-118.4595 157.0679,-108.1451 152.5286,-117.7182 159.4893,-118.4595"/>
</g>
<!-- 5 -->
<g id="node6" class="node">
<title>5</title>
<path fill="none" stroke="#a7d856" stroke-width="2" d="M366.5,-180C366.5,-180 301.5,-180 301.5,-180 295.5,-180 289.5,-174 289.5,-168 289.5,-168 289.5,-156 289.5,-156 289.5,-150 295.5,-144 301.5,-144 301.5,-144 366.5,-144 366.5,-144 372.5,-144 378.5,-150 378.5,-156 378.5,-156 378.5,-168 378.5,-168 378.5,-174 372.5,-180 366.5,-180"/>
<text text-anchor="middle" x="334" y="-159.5" font-family="sans" font-size="10.00" fill="#000000">summarise_all</text>
</g>
<!-- 5&#45;&gt;2 -->
<g id="edge5" class="edge">
<title>5&#45;&gt;2</title>
<path fill="none" stroke="#c0c0c0" stroke-width="2" d="M330.2149,-143.8314C328.6106,-136.131 326.703,-126.9743 324.9201,-118.4166"/>
<polygon fill="#c0c0c0" stroke="#c0c0c0" stroke-width="2" points="328.3021,-117.4892 322.8361,-108.4133 321.4493,-118.9169 328.3021,-117.4892"/>
</g>
<!-- 6 -->
<g id="node7" class="node">
<title>6</title>
<path fill="none" stroke="#56d88a" stroke-width="2" d="M241.5,-252C241.5,-252 198.5,-252 198.5,-252 192.5,-252 186.5,-246 186.5,-240 186.5,-240 186.5,-228 186.5,-228 186.5,-222 192.5,-216 198.5,-216 198.5,-216 241.5,-216 241.5,-216 247.5,-216 253.5,-222 253.5,-228 253.5,-228 253.5,-240 253.5,-240 253.5,-246 247.5,-252 241.5,-252"/>
<text text-anchor="middle" x="220" y="-231.5" font-family="sans" font-size="10.00" fill="#000000">count_aed</text>
</g>
<!-- 6&#45;&gt;3 -->
<g id="edge6" class="edge">
<title>6&#45;&gt;3</title>
<path fill="none" stroke="#c0c0c0" stroke-width="2" d="M220,-215.8314C220,-208.131 220,-198.9743 220,-190.4166"/>
<polygon fill="#c0c0c0" stroke="#c0c0c0" stroke-width="2" points="223.5001,-190.4132 220,-180.4133 216.5001,-190.4133 223.5001,-190.4132"/>
</g>
<!-- 7 -->
<g id="node8" class="node">
<title>7</title>
<path fill="none" stroke="#d8bc56" stroke-width="2" d="M66,-468C66,-468 36,-468 36,-468 30,-468 24,-462 24,-456 24,-456 24,-444 24,-444 24,-438 30,-432 36,-432 36,-432 66,-432 66,-432 72,-432 78,-438 78,-444 78,-444 78,-456 78,-456 78,-462 72,-468 66,-468"/>
<text text-anchor="middle" x="51" y="-447.5" font-family="sans" font-size="10.00" fill="#000000">allign</text>
</g>
<!-- 7&#45;&gt;4 -->
<g id="edge7" class="edge">
<title>7&#45;&gt;4</title>
<path fill="none" stroke="#c0c0c0" stroke-width="2" d="M61.7653,-431.7623C76.5187,-406.7682 103.126,-361.6924 120.1564,-332.8409"/>
<polygon fill="#c0c0c0" stroke="#c0c0c0" stroke-width="2" points="123.2529,-334.4804 125.3221,-324.0896 117.2247,-330.9221 123.2529,-334.4804"/>
</g>
<!-- 8 -->
<g id="node9" class="node">
<title>8</title>
<path fill="none" stroke="#5673d8" stroke-width="2" d="M304,-540C304,-540 270,-540 270,-540 264,-540 258,-534 258,-528 258,-528 258,-516 258,-516 258,-510 264,-504 270,-504 270,-504 304,-504 304,-504 310,-504 316,-510 316,-516 316,-516 316,-528 316,-528 316,-534 310,-540 304,-540"/>
<text text-anchor="middle" x="287" y="-519.5" font-family="sans" font-size="10.00" fill="#000000">trim_rna</text>
</g>
<!-- 8&#45;&gt;5 -->
<g id="edge9" class="edge">
<title>8&#45;&gt;5</title>
<path fill="none" stroke="#c0c0c0" stroke-width="2" d="M316.0592,-518.9237C348.1167,-513.9338 398.8798,-501.0246 427,-468 453.5039,-436.8736 446,-418.8816 446,-378 446,-378 446,-378 446,-306 446,-262.2273 433.2768,-250.2348 406,-216 396.9114,-204.593 384.8782,-194.3252 373.2561,-185.8824"/>
<polygon fill="#c0c0c0" stroke="#c0c0c0" stroke-width="2" points="375.119,-182.9146 364.914,-180.0671 371.1159,-188.6571 375.119,-182.9146"/>
</g>
<!-- 8&#45;&gt;7 -->
<g id="edge12" class="edge">
<title>8&#45;&gt;7</title>
<path fill="none" stroke="#c0c0c0" stroke-width="2" d="M257.9451,-516.0722C220.3545,-507.9936 152.8695,-492.0989 87.8366,-467.959"/>
<polygon fill="#c0c0c0" stroke="#c0c0c0" stroke-width="2" points="88.8548,-464.6021 78.2633,-464.3375 86.378,-471.1493 88.8548,-464.6021"/>
</g>
<!-- 15 -->
<g id="node16" class="node">
<title>15</title>
<path fill="none" stroke="#d6d856" stroke-width="2" d="M302,-468C302,-468 272,-468 272,-468 266,-468 260,-462 260,-456 260,-456 260,-444 260,-444 260,-438 266,-432 272,-432 272,-432 302,-432 302,-432 308,-432 314,-438 314,-444 314,-444 314,-456 314,-456 314,-462 308,-468 302,-468"/>
<text text-anchor="middle" x="287" y="-447.5" font-family="sans" font-size="10.00" fill="#000000">trinity</text>
</g>
<!-- 8&#45;&gt;15 -->
<g id="edge24" class="edge">
<title>8&#45;&gt;15</title>
<path fill="none" stroke="#c0c0c0" stroke-width="2" d="M287,-503.8314C287,-496.131 287,-486.9743 287,-478.4166"/>
<polygon fill="#c0c0c0" stroke="#c0c0c0" stroke-width="2" points="290.5001,-478.4132 287,-468.4133 283.5001,-478.4133 290.5001,-478.4132"/>
</g>
<!-- 9 -->
<g id="node10" class="node">
<title>9</title>
<path fill="none" stroke="#d85656" stroke-width="2" d="M384.5,-252C384.5,-252 283.5,-252 283.5,-252 277.5,-252 271.5,-246 271.5,-240 271.5,-240 271.5,-228 271.5,-228 271.5,-222 277.5,-216 283.5,-216 283.5,-216 384.5,-216 384.5,-216 390.5,-216 396.5,-222 396.5,-228 396.5,-228 396.5,-240 396.5,-240 396.5,-246 390.5,-252 384.5,-252"/>
<text text-anchor="middle" x="334" y="-231.5" font-family="sans" font-size="10.00" fill="#000000">summarise_individual</text>
</g>
<!-- 9&#45;&gt;5 -->
<g id="edge8" class="edge">
<title>9&#45;&gt;5</title>
<path fill="none" stroke="#c0c0c0" stroke-width="2" d="M334,-215.8314C334,-208.131 334,-198.9743 334,-190.4166"/>
<polygon fill="#c0c0c0" stroke="#c0c0c0" stroke-width="2" points="337.5001,-190.4132 334,-180.4133 330.5001,-190.4133 337.5001,-190.4132"/>
</g>
<!-- 10 -->
<g id="node11" class="node">
<title>10</title>
<path fill="none" stroke="#bed856" stroke-width="2" d="M331,-324C331,-324 283,-324 283,-324 277,-324 271,-318 271,-312 271,-312 271,-300 271,-300 271,-294 277,-288 283,-288 283,-288 331,-288 331,-288 337,-288 343,-294 343,-300 343,-300 343,-312 343,-312 343,-318 337,-324 331,-324"/>
<text text-anchor="middle" x="307" y="-303.5" font-family="sans" font-size="10.00" fill="#000000">collect_gffs</text>
</g>
<!-- 10&#45;&gt;6 -->
<g id="edge10" class="edge">
<title>10&#45;&gt;6</title>
<path fill="none" stroke="#c0c0c0" stroke-width="2" d="M285.0462,-287.8314C274.3305,-278.9632 261.2811,-268.1637 249.691,-258.5718"/>
<polygon fill="#c0c0c0" stroke="#c0c0c0" stroke-width="2" points="251.8822,-255.8422 241.9467,-252.1628 247.4192,-261.2349 251.8822,-255.8422"/>
</g>
<!-- 10&#45;&gt;9 -->
<g id="edge14" class="edge">
<title>10&#45;&gt;9</title>
<path fill="none" stroke="#c0c0c0" stroke-width="2" d="M313.8132,-287.8314C316.7644,-279.9617 320.2858,-270.5712 323.555,-261.8533"/>
<polygon fill="#c0c0c0" stroke="#c0c0c0" stroke-width="2" points="326.8609,-263.0055 327.095,-252.4133 320.3066,-260.5476 326.8609,-263.0055"/>
</g>
<!-- 13 -->
<g id="node14" class="node">
<title>13</title>
<path fill="none" stroke="#56d8a2" stroke-width="2" d="M338,-396C338,-396 276,-396 276,-396 270,-396 264,-390 264,-384 264,-384 264,-372 264,-372 264,-366 270,-360 276,-360 276,-360 338,-360 338,-360 344,-360 350,-366 350,-372 350,-372 350,-384 350,-384 350,-390 344,-396 338,-396"/>
<text text-anchor="middle" x="307" y="-375.5" font-family="sans" font-size="10.00" fill="#000000">maker_double</text>
</g>
<!-- 10&#45;&gt;13 -->
<g id="edge17" class="edge">
<title>10&#45;&gt;13</title>
<path fill="none" stroke="#c0c0c0" stroke-width="2" d="M312.976,-324.4133C313.7071,-332.0593 313.9203,-341.1084 313.6155,-349.5726"/>
<polygon fill="#c0c0c0" stroke="#c0c0c0" stroke-width="2" points="310.1048,-349.6264 312.9524,-359.8314 317.0902,-350.078 310.1048,-349.6264"/>
</g>
<!-- 11 -->
<g id="node12" class="node">
<title>11</title>
<path fill="none" stroke="#d88d56" stroke-width="2" d="M90,-540C90,-540 12,-540 12,-540 6,-540 0,-534 0,-528 0,-528 0,-516 0,-516 0,-510 6,-504 12,-504 12,-504 90,-504 90,-504 96,-504 102,-510 102,-516 102,-516 102,-528 102,-528 102,-534 96,-540 90,-540"/>
<text text-anchor="middle" x="51" y="-519.5" font-family="sans" font-size="10.00" fill="#000000">prep_ref_genome</text>
</g>
<!-- 11&#45;&gt;7 -->
<g id="edge11" class="edge">
<title>11&#45;&gt;7</title>
<path fill="none" stroke="#c0c0c0" stroke-width="2" d="M51,-503.8314C51,-496.131 51,-486.9743 51,-478.4166"/>
<polygon fill="#c0c0c0" stroke="#c0c0c0" stroke-width="2" points="54.5001,-478.4132 51,-468.4133 47.5001,-478.4133 54.5001,-478.4132"/>
</g>
<!-- 12 -->
<g id="node13" class="node">
<title>12</title>
<path fill="none" stroke="#59d856" stroke-width="2" d="M302,-612C302,-612 272,-612 272,-612 266,-612 260,-606 260,-600 260,-600 260,-588 260,-588 260,-582 266,-576 272,-576 272,-576 302,-576 302,-576 308,-576 314,-582 314,-588 314,-588 314,-600 314,-600 314,-606 308,-612 302,-612"/>
<text text-anchor="middle" x="287" y="-591.5" font-family="sans" font-size="10.00" fill="#000000">merge</text>
</g>
<!-- 12&#45;&gt;8 -->
<g id="edge13" class="edge">
<title>12&#45;&gt;8</title>
<path fill="none" stroke="#c0c0c0" stroke-width="2" d="M287,-575.8314C287,-568.131 287,-558.9743 287,-550.4166"/>
<polygon fill="#c0c0c0" stroke="#c0c0c0" stroke-width="2" points="290.5001,-550.4132 287,-540.4133 283.5001,-550.4133 290.5001,-550.4132"/>
</g>
<!-- 13&#45;&gt;10 -->
<g id="edge15" class="edge">
<title>13&#45;&gt;10</title>
<path fill="none" stroke="#c0c0c0" stroke-width="2" d="M301.0476,-359.8314C300.2972,-352.131 300.0763,-342.9743 300.3849,-334.4166"/>
<polygon fill="#c0c0c0" stroke="#c0c0c0" stroke-width="2" points="303.8792,-334.6161 301.024,-324.4133 296.8935,-334.1697 303.8792,-334.6161"/>
</g>
<!-- 14 -->
<g id="node15" class="node">
<title>14</title>
<path fill="none" stroke="#56c1d8" stroke-width="2" d="M233.5,-396C233.5,-396 174.5,-396 174.5,-396 168.5,-396 162.5,-390 162.5,-384 162.5,-384 162.5,-372 162.5,-372 162.5,-366 168.5,-360 174.5,-360 174.5,-360 233.5,-360 233.5,-360 239.5,-360 245.5,-366 245.5,-372 245.5,-372 245.5,-384 245.5,-384 245.5,-390 239.5,-396 233.5,-396"/>
<text text-anchor="middle" x="204" y="-375.5" font-family="sans" font-size="10.00" fill="#000000">maker_single</text>
</g>
<!-- 14&#45;&gt;10 -->
<g id="edge16" class="edge">
<title>14&#45;&gt;10</title>
<path fill="none" stroke="#c0c0c0" stroke-width="2" d="M229.9912,-359.8314C242.9216,-350.7927 258.7222,-339.7476 272.6383,-330.0198"/>
<polygon fill="#c0c0c0" stroke="#c0c0c0" stroke-width="2" points="274.8263,-332.7608 281.0171,-324.1628 270.8157,-327.0235 274.8263,-332.7608"/>
</g>
<!-- 15&#45;&gt;13 -->
<g id="edge19" class="edge">
<title>15&#45;&gt;13</title>
<path fill="none" stroke="#c0c0c0" stroke-width="2" d="M292.0468,-431.8314C294.2094,-424.0463 296.7853,-414.7729 299.1848,-406.1347"/>
<polygon fill="#c0c0c0" stroke="#c0c0c0" stroke-width="2" points="302.581,-406.9852 301.8852,-396.4133 295.8364,-405.1117 302.581,-406.9852"/>
</g>
<!-- 15&#45;&gt;14 -->
<g id="edge22" class="edge">
<title>15&#45;&gt;14</title>
<path fill="none" stroke="#c0c0c0" stroke-width="2" d="M266.0556,-431.8314C255.9309,-423.0485 243.6223,-412.3712 232.6452,-402.8489"/>
<polygon fill="#c0c0c0" stroke="#c0c0c0" stroke-width="2" points="234.7851,-400.0718 224.9377,-396.1628 230.1981,-405.3595 234.7851,-400.0718"/>
</g>
<!-- 16 -->
<g id="node17" class="node">
<title>16</title>
<path fill="none" stroke="#56d8c1" stroke-width="2" d="M406,-468C406,-468 344,-468 344,-468 338,-468 332,-462 332,-456 332,-456 332,-444 332,-444 332,-438 338,-432 344,-432 344,-432 406,-432 406,-432 412,-432 418,-438 418,-444 418,-444 418,-456 418,-456 418,-462 412,-468 406,-468"/>
<text text-anchor="middle" x="375" y="-447.5" font-family="sans" font-size="10.00" fill="#000000">mask_repeats</text>
</g>
<!-- 16&#45;&gt;13 -->
<g id="edge20" class="edge">
<title>16&#45;&gt;13</title>
<path fill="none" stroke="#c0c0c0" stroke-width="2" d="M357.8407,-431.8314C349.8489,-423.3694 340.1962,-413.1489 331.4584,-403.8971"/>
<polygon fill="#c0c0c0" stroke="#c0c0c0" stroke-width="2" points="333.8011,-401.2802 324.3903,-396.4133 328.712,-406.0866 333.8011,-401.2802"/>
</g>
<!-- 16&#45;&gt;14 -->
<g id="edge23" class="edge">
<title>16&#45;&gt;14</title>
<path fill="none" stroke="#c0c0c0" stroke-width="2" d="M331.8495,-431.8314C308.5282,-422.0119 279.5831,-409.8245 255.135,-399.5305"/>
<polygon fill="#c0c0c0" stroke="#c0c0c0" stroke-width="2" points="256.235,-396.1961 245.6604,-395.5412 253.5186,-402.6476 256.235,-396.1961"/>
</g>
<!-- 17 -->
<g id="node18" class="node">
<title>17</title>
<path fill="none" stroke="#70d856" stroke-width="2" d="M230,-468C230,-468 108,-468 108,-468 102,-468 96,-462 96,-456 96,-456 96,-444 96,-444 96,-438 102,-432 108,-432 108,-432 230,-432 230,-432 236,-432 242,-438 242,-444 242,-444 242,-456 242,-456 242,-462 236,-468 230,-468"/>
<text text-anchor="middle" x="169" y="-447.5" font-family="sans" font-size="10.00" fill="#000000">download_ref_annotations</text>
</g>
<!-- 17&#45;&gt;13 -->
<g id="edge18" class="edge">
<title>17&#45;&gt;13</title>
<path fill="none" stroke="#c0c0c0" stroke-width="2" d="M203.8232,-431.8314C221.8011,-422.4516 243.9203,-410.9112 263.0616,-400.9244"/>
<polygon fill="#c0c0c0" stroke="#c0c0c0" stroke-width="2" points="264.9411,-403.8916 272.1879,-396.1628 261.7031,-397.6855 264.9411,-403.8916"/>
</g>
<!-- 17&#45;&gt;14 -->
<g id="edge21" class="edge">
<title>17&#45;&gt;14</title>
<path fill="none" stroke="#c0c0c0" stroke-width="2" d="M177.832,-431.8314C181.6986,-423.8771 186.3206,-414.369 190.5968,-405.5723"/>
<polygon fill="#c0c0c0" stroke="#c0c0c0" stroke-width="2" points="193.8249,-406.9371 195.0491,-396.4133 187.5293,-403.8768 193.8249,-406.9371"/>
</g>
</g>
</svg>
